<?xml version="1.0" standalone="no"?>
<!DOCTYPE svg PUBLIC "-//W3C//DTD SVG 20010904//EN"
 "http://www.w3.org/TR/2001/REC-SVG-20010904/DTD/svg10.dtd">
<svg version="1.0" xmlns="http://www.w3.org/2000/svg"
 width="1024.000000pt" height="1024.000000pt" viewBox="0 0 1024.000000 1024.000000"
 preserveAspectRatio="xMidYMid meet">
<metadata>
Created by potrace 1.14, written by Peter Selinger 2001-2017
</metadata>
<g transform="translate(0.000000,1024.000000) scale(0.100000,-0.100000)"
fill="#000000" stroke="none">
<path d="M5109 10098 c-61 -229 -421 -1577 -424 -1589 -2 -9 -8 -33 -13 -52
l-10 -36 596 -600 c329 -329 1398 -1403 2377 -2386 979 -983 1786 -1794 1793
-1801 8 -8 17 -12 20 -10 4 2 7 905 7 2005 l0 2001 -130 76 c-72 42 -148 86
-170 99 -63 36 -541 312 -635 367 -47 28 -174 101 -283 164 -109 63 -216 126
-237 139 -22 14 -41 25 -44 25 -2 0 -108 61 -235 135 -126 74 -235 135 -241
135 -5 0 -10 5 -10 10 0 6 -4 10 -8 10 -5 0 -157 86 -338 191 -181 106 -342
199 -359 209 -16 9 -203 117 -415 240 -212 123 -398 231 -415 240 -41 23 -186
108 -205 119 -8 5 -80 47 -159 93 -79 46 -165 95 -190 110 -25 15 -53 31 -61
35 -8 3 -31 16 -50 28 -19 12 -61 36 -92 54 l-57 32 -12 -43z"/>
<path d="M4235 9626 c-11 -7 -47 -28 -80 -46 -33 -18 -77 -44 -97 -57 -21 -12
-40 -23 -43 -23 -3 0 -23 -11 -44 -25 -32 -20 -206 -121 -507 -295 -16 -10
-91 -53 -165 -95 -74 -43 -219 -127 -324 -188 -104 -60 -194 -113 -200 -117
-5 -4 -30 -19 -55 -32 -58 -32 -661 -381 -763 -442 -43 -25 -80 -46 -82 -46
-2 0 -39 -21 -83 -47 -44 -27 -95 -57 -113 -67 -19 -11 -83 -48 -143 -83 -61
-35 -112 -63 -115 -63 -2 0 -12 -6 -20 -14 -9 -8 -38 -26 -66 -40 -27 -15 -57
-31 -65 -37 -8 -5 -118 -70 -245 -143 l-230 -134 -3 -2511 c-2 -2006 0 -2511
10 -2511 7 0 38 7 68 16 52 15 104 29 215 58 63 17 288 78 520 141 109 30 160
43 188 50 10 2 27 7 37 10 10 3 27 8 37 10 10 2 99 26 198 53 99 27 237 64
307 83 138 36 134 33 153 115 2 10 18 71 35 134 27 100 39 143 55 210 3 8 18
65 35 125 16 61 32 119 34 130 3 11 20 76 39 145 30 108 112 416 122 460 2 8
52 193 110 410 58 217 119 445 135 505 16 61 68 254 115 430 87 321 92 340 99
373 9 40 28 109 36 132 4 14 20 72 35 130 15 58 43 161 61 230 19 69 36 135
38 145 2 11 11 45 20 76 9 31 18 65 21 75 2 11 33 129 70 264 36 135 98 364
136 510 39 146 79 294 89 330 11 36 21 76 24 90 2 14 5 25 6 25 1 0 3 7 5 15
2 8 44 170 95 360 51 189 94 351 95 360 2 8 14 49 25 90 12 41 23 82 25 90 2
8 8 35 15 60 7 25 14 52 16 60 8 34 96 359 109 405 9 28 18 64 21 80 3 16 7
32 10 37 7 11 1 10 -21 -6z"/>
<path d="M5037 6624 c-1 -1 -36 -5 -77 -8 -64 -6 -126 -18 -224 -41 -118 -28
-306 -112 -429 -191 -311 -201 -546 -527 -637 -882 -40 -156 -49 -247 -45
-422 4 -178 25 -302 81 -462 74 -213 215 -435 374 -586 86 -82 289 -232 315
-232 5 0 16 -6 24 -14 9 -7 55 -29 102 -49 208 -89 366 -121 584 -122 211 0
311 15 483 71 227 74 420 192 582 355 52 52 100 102 106 110 6 9 32 42 56 75
62 81 140 220 176 312 30 77 42 110 41 115 0 1 5 16 11 32 7 17 13 37 15 45
47 207 58 345 42 525 -8 88 -9 96 -33 205 -102 465 -444 867 -894 1053 -90 37
-245 82 -320 92 -25 4 -61 9 -80 12 -33 5 -248 11 -253 7z"/>
<path d="M8138 3849 c-35 -9 -124 -33 -198 -54 -74 -20 -142 -38 -150 -40 -8
-2 -82 -21 -165 -44 -82 -22 -175 -47 -205 -55 -30 -8 -183 -49 -340 -91 -157
-42 -292 -78 -300 -80 -8 -2 -46 -13 -85 -24 -38 -11 -115 -31 -170 -46 -55
-14 -149 -40 -210 -56 -60 -16 -117 -31 -125 -34 -35 -8 -252 -67 -337 -91
-51 -14 -101 -27 -110 -29 -10 -2 -85 -22 -168 -45 -82 -23 -157 -43 -165 -45
-8 -2 -67 -17 -130 -35 -63 -17 -122 -33 -131 -35 -25 -5 -247 -65 -319 -85
-100 -28 -258 -71 -277 -75 -25 -5 -347 -92 -408 -110 -41 -12 -760 -204 -965
-258 -30 -8 -120 -33 -200 -55 -168 -46 -528 -142 -550 -147 -8 -2 -107 -29
-220 -60 -113 -31 -213 -58 -222 -60 -99 -22 -327 -90 -321 -96 5 -4 105 -63
223 -132 118 -68 526 -304 905 -524 380 -220 742 -430 805 -467 63 -36 122
-70 130 -76 8 -6 22 -13 30 -17 8 -4 49 -27 90 -51 41 -25 95 -56 120 -70 25
-14 153 -88 285 -166 132 -77 251 -145 265 -153 14 -7 156 -89 315 -182 254
-148 292 -167 306 -155 8 8 18 14 21 14 4 0 39 19 80 43 40 24 93 55 118 69
147 83 509 293 532 309 15 11 30 19 33 19 3 0 31 16 61 35 30 19 56 35 59 35
2 0 42 22 87 49 46 27 99 58 118 68 19 11 116 67 215 125 155 90 505 293 600
348 17 9 145 84 285 165 688 400 993 575 1001 575 5 0 9 5 9 10 0 6 4 10 9 10
5 0 42 19 83 43 40 24 93 55 118 69 25 14 212 122 415 240 204 119 390 227
415 241 25 14 45 30 45 36 0 5 -280 291 -622 634 l-622 623 -63 -17z"/>
</g>
</svg>
