<?xml version="1.0" standalone="no"?>
<!DOCTYPE svg PUBLIC "-//W3C//DTD SVG 20010904//EN"
 "http://www.w3.org/TR/2001/REC-SVG-20010904/DTD/svg10.dtd">
<svg version="1.0" xmlns="http://www.w3.org/2000/svg"
 width="1669.000000pt" height="1669.000000pt" viewBox="0 0 1669.000000 1669.000000"
 preserveAspectRatio="xMidYMid meet">
<metadata>
Created by potrace 1.11, written by Peter Selinger 2001-2013
</metadata>
<g transform="translate(0.000000,1669.000000) scale(0.100000,-0.100000)"
fill="#000000" stroke="none">
<path d="M8321 16601 c-13 -47 -27 -99 -32 -116 -11 -35 -119 -442 -124 -465
-2 -8 -22 -82 -45 -165 -22 -82 -43 -161 -46 -175 -2 -14 -7 -32 -10 -40 -4
-8 -14 -46 -24 -85 -10 -38 -27 -104 -39 -145 -11 -41 -60 -226 -110 -410 -49
-184 -99 -371 -111 -415 -12 -44 -39 -145 -60 -225 -21 -80 -62 -232 -91 -339
l-52 -193 3997 -3997 3996 -3996 0 3340 0 3340 -38 21 c-34 18 -399 229 -702
404 -69 40 -141 82 -160 93 -19 10 -91 52 -160 92 -69 40 -142 82 -162 94 -61
34 -774 446 -1093 631 -88 51 -180 104 -205 118 -25 14 -126 72 -225 130 -99
57 -200 116 -225 130 -25 13 -72 40 -105 60 -33 19 -73 43 -90 52 -249 144
-487 282 -515 299 -19 11 -42 24 -50 28 -8 4 -46 26 -85 48 -38 23 -90 53
-115 67 -25 14 -101 58 -170 98 -69 40 -143 83 -165 96 -22 12 -139 79 -260
149 -121 70 -240 139 -265 152 -25 14 -65 38 -90 53 -25 15 -90 53 -145 84
-55 31 -107 61 -115 66 -8 5 -98 57 -200 116 -102 58 -198 114 -215 124 -16 9
-90 52 -164 94 -73 43 -147 86 -165 97 -17 10 -37 22 -45 26 -14 6 -223 125
-251 143 -46 28 -181 107 -220 128 -25 13 -65 37 -90 52 -25 15 -184 107 -355
205 -170 97 -326 187 -346 200 l-35 23 -23 -87z"/>
<path d="M6860 15828 c-61 -35 -684 -395 -945 -546 -137 -80 -275 -158 -305
-175 -30 -16 -59 -33 -65 -37 -5 -4 -28 -18 -50 -30 -22 -12 -155 -89 -295
-170 -140 -81 -271 -157 -290 -168 -19 -11 -91 -52 -160 -92 -69 -40 -150 -86
-180 -103 -30 -16 -62 -35 -70 -41 -8 -6 -24 -16 -35 -22 -24 -13 -678 -390
-720 -415 -16 -10 -41 -24 -55 -32 -25 -14 -435 -250 -725 -418 -88 -50 -176
-101 -195 -112 -19 -11 -73 -42 -120 -70 -47 -27 -105 -61 -130 -75 -25 -14
-57 -32 -72 -41 -15 -9 -98 -57 -185 -107 -87 -50 -230 -132 -318 -183 -88
-51 -176 -102 -195 -113 -19 -11 -64 -37 -100 -58 -36 -21 -81 -47 -100 -58
-19 -11 -62 -35 -95 -54 -33 -19 -122 -70 -197 -114 l-138 -79 0 -4173 c0
-3970 1 -4173 18 -4168 9 3 78 22 152 41 160 42 365 97 470 125 112 31 201 55
335 90 66 18 185 50 265 72 140 38 234 63 275 73 11 3 263 71 560 151 297 79
549 147 560 149 11 3 45 11 75 20 30 8 75 20 100 26 l45 11 109 407 c59 223
116 435 126 471 24 85 120 443 125 467 2 10 38 144 80 298 42 154 92 341 112
415 29 108 68 254 87 325 2 6 6 24 11 40 4 17 25 93 45 170 47 171 96 356 120
450 20 75 69 260 120 445 17 63 33 122 35 130 2 8 26 101 55 205 52 191 56
207 65 246 2 12 11 45 19 73 14 47 63 232 72 266 2 8 28 107 59 220 31 113 58
212 60 221 2 9 22 86 45 170 23 85 50 188 61 229 11 41 24 89 30 106 5 17 11
40 13 50 2 10 16 64 31 119 15 55 39 147 55 205 15 58 44 166 64 240 20 74 51
187 67 250 17 63 37 140 46 170 15 55 63 236 67 255 12 49 19 74 26 95 9 26
108 395 115 427 2 10 20 77 40 150 20 72 38 142 41 155 6 28 9 39 17 58 3 8
33 119 66 245 33 127 81 307 106 400 25 94 57 211 70 260 13 50 30 115 39 145
41 153 101 376 150 560 30 113 80 300 111 415 31 116 65 244 76 285 75 280
173 646 190 705 49 179 98 369 96 371 -1 1 -18 -8 -37 -18z"/>
<path d="M7960 11189 c-39 -8 -76 -42 -85 -77 -4 -15 -8 -182 -9 -372 l-1
-344 -150 -42 c-140 -38 -318 -100 -375 -129 -24 -13 -31 -6 -236 199 -278
279 -303 301 -345 304 -19 2 -45 -3 -59 -10 -14 -7 -182 -169 -374 -361 -367
-366 -383 -386 -365 -451 6 -21 90 -112 259 -281 137 -138 250 -253 250 -257
0 -4 -11 -31 -24 -60 -23 -51 -64 -157 -72 -188 -2 -8 -20 -69 -39 -135 -20
-66 -37 -127 -38 -137 -2 -10 -6 -20 -10 -24 -3 -4 -162 -7 -352 -7 -385 0
-395 -1 -427 -66 -15 -30 -17 -76 -16 -417 1 -352 3 -386 19 -414 33 -54 52
-56 422 -55 186 0 342 -2 348 -5 5 -4 23 -55 39 -116 38 -134 83 -267 121
-358 16 -37 29 -70 29 -73 0 -3 -113 -118 -250 -256 -138 -137 -253 -260 -256
-272 -11 -45 -11 -61 2 -86 20 -41 711 -726 742 -736 15 -5 34 -8 42 -8 8 1
24 3 35 3 11 1 131 114 275 257 l256 256 65 -30 c69 -31 300 -107 415 -137
l71 -18 1 -351 c0 -305 2 -356 16 -383 32 -62 35 -62 461 -62 340 0 390 2 415
16 60 36 60 38 60 426 l0 354 53 13 c100 26 333 100 417 135 l85 35 255 -255
c141 -140 260 -254 265 -255 6 0 20 -2 33 -5 12 -2 36 2 52 9 26 10 265 243
635 618 113 114 115 117 115 162 0 57 9 46 -280 335 -127 126 -230 233 -230
236 0 4 9 26 19 50 30 65 105 290 131 391 13 50 27 95 32 100 6 6 135 10 346
11 185 0 352 4 369 8 20 4 42 20 55 39 23 32 23 33 23 421 0 425 -1 431 -57
466 -26 16 -64 17 -377 17 -192 1 -353 3 -359 7 -5 3 -13 23 -16 43 -8 41 -78
277 -100 333 -8 19 -27 66 -42 103 l-28 68 246 247 c135 136 251 257 257 269
17 34 13 88 -9 116 -11 14 -176 181 -366 371 -357 356 -368 365 -432 351 -20
-4 -110 -86 -284 -258 l-256 -252 -104 42 c-129 52 -321 111 -420 130 l-28 5
0 357 0 356 -25 38 c-14 20 -37 40 -51 43 -33 8 -744 11 -784 3z m558 -1916
c37 -8 72 -16 77 -17 6 -1 28 -8 50 -15 249 -82 472 -291 575 -536 27 -67 67
-222 68 -265 3 -181 2 -204 -11 -270 -18 -93 -62 -216 -104 -290 -64 -113
-143 -200 -291 -321 -64 -52 -281 -139 -389 -156 -60 -9 -222 -10 -284 -1
-160 23 -320 92 -450 196 -227 181 -355 435 -362 722 -10 355 187 689 505 859
70 38 169 75 233 88 17 3 46 9 65 13 60 12 249 8 318 -7z"/>
<path d="M13445 6253 c-20 -5 -308 -82 -1080 -290 -236 -63 -486 -130 -555
-148 -227 -60 -723 -193 -875 -235 -82 -23 -157 -43 -166 -45 -15 -3 -173 -45
-454 -121 -49 -14 -97 -26 -105 -28 -8 -2 -42 -11 -75 -20 -33 -9 -67 -19 -76
-21 -10 -2 -111 -29 -225 -59 -115 -31 -319 -86 -454 -122 -135 -35 -285 -76
-335 -90 -49 -14 -97 -27 -105 -29 -25 -5 -322 -84 -380 -100 -30 -9 -71 -20
-90 -25 -19 -5 -109 -30 -200 -54 -561 -150 -662 -178 -677 -181 -10 -2 -137
-36 -283 -75 -146 -40 -272 -73 -280 -75 -8 -2 -40 -10 -70 -19 -30 -8 -140
-38 -245 -66 -104 -28 -239 -65 -300 -81 -60 -17 -117 -32 -125 -34 -37 -8
-147 -37 -170 -45 -14 -5 -106 -30 -205 -55 -99 -26 -353 -94 -565 -152 -212
-57 -394 -106 -405 -108 -24 -5 -155 -40 -249 -67 -38 -11 -76 -21 -85 -23 -9
-2 -153 -40 -321 -85 -168 -45 -312 -83 -320 -85 -8 -2 -82 -22 -165 -45 -82
-23 -157 -43 -165 -45 -39 -9 -262 -69 -324 -87 -38 -11 -76 -21 -85 -23 -17
-3 -245 -64 -505 -134 -82 -23 -151 -42 -153 -45 -3 -3 386 -232 567 -333 59
-34 680 -392 768 -444 45 -27 85 -49 89 -49 4 0 14 -6 22 -14 9 -7 41 -27 71
-43 30 -17 96 -54 145 -83 50 -29 110 -64 135 -78 25 -14 99 -56 165 -95 66
-38 136 -79 155 -90 19 -10 107 -61 195 -112 88 -51 176 -102 195 -113 19 -10
208 -120 420 -242 212 -123 401 -232 420 -242 19 -11 60 -35 90 -53 30 -18 75
-44 100 -57 25 -14 331 -191 680 -393 349 -202 651 -376 670 -387 19 -11 51
-29 70 -40 45 -26 663 -384 710 -411 19 -11 51 -28 71 -39 l37 -19 172 101
c95 55 174 100 176 100 2 0 32 17 66 38 35 21 83 50 108 64 102 58 810 467
860 497 19 11 44 25 55 31 11 5 38 21 60 35 22 14 47 28 55 32 8 4 78 44 155
88 130 76 371 216 440 255 17 9 75 43 130 75 210 122 339 195 342 195 3 0 24
14 48 30 24 17 46 30 48 30 3 0 43 22 89 49 45 27 102 59 124 72 23 13 123 71
223 129 100 58 196 113 214 123 18 11 50 29 72 40 22 12 42 24 45 27 3 3 61
38 130 77 69 39 227 130 352 202 124 72 244 141 266 153 111 64 407 235 435
252 60 35 412 238 447 258 19 11 149 86 288 167 139 80 270 155 290 167 20 11
98 55 172 99 157 91 163 94 295 170 55 32 127 73 160 93 33 19 80 46 105 60
25 14 74 42 109 64 34 21 64 38 66 38 1 0 42 23 91 52 49 28 121 69 159 91 39
22 102 59 140 82 39 23 77 45 85 49 8 4 24 12 35 19 11 7 42 25 68 40 l48 28
-1044 1045 c-575 574 -1048 1043 -1053 1043 -5 -1 -18 -4 -29 -6z"/>
</g>
</svg>
